<?xml version="1.0" standalone="no"?><!DOCTYPE svg PUBLIC "-//W3C//DTD SVG 1.1//EN" "http://www.w3.org/Graphics/SVG/1.1/DTD/svg11.dtd"><svg t="1522760488404" class="icon" style="" viewBox="0 0 1024 1024" version="1.1" xmlns="http://www.w3.org/2000/svg" p-id="629" xmlns:xlink="http://www.w3.org/1999/xlink" width="200" height="200"><defs><style type="text/css"></style></defs><path d="M95.328 76.896l37.152 0 0 833.184-37.152 0 0-833.184z" p-id="630" fill="#006CBC"></path><path d="M502.688 76.896l37.152 0 0 833.184-37.152 0 0-833.184z" p-id="631" fill="#006CBC"></path><path d="M21.344 910.016l981.344 0 0 37.152-981.344 0 0-37.152z" p-id="632" fill="#006CBC"></path><path d="M95.392 76.832l444.448 0 0 37.152-444.448 0 0-37.152z" p-id="633" fill="#006CBC"></path><path d="M947.104 910.08l-37.12 0 0-583.648 37.12 9.696 0 573.984z" p-id="634" fill="#006CBC"></path><path d="M909.984 326.432l0 38.272-370.176-96.576 0-38.208 370.176 96.512z" p-id="635" fill="#006CBC"></path><path d="M187.968 225.024l20 0 0 111.072-20 0 0-111.072z" p-id="636" fill="#006CBC"></path><path d="M279.072 225.024l20 0 0 111.072-20 0 0-111.072z" p-id="637" fill="#006CBC"></path><path d="M187.968 225.024l111.104 0 0 20-111.104 0 0-20z" p-id="638" fill="#006CBC"></path><path d="M187.968 316.096l111.104 0 0 20-111.104 0 0-20z" p-id="639" fill="#006CBC"></path><path d="M336.096 225.024l20 0 0 111.072-20 0 0-111.072z" p-id="640" fill="#006CBC"></path><path d="M427.2 225.024l20 0 0 111.072-20 0 0-111.072z" p-id="641" fill="#006CBC"></path><path d="M336.096 225.024l111.072 0 0 20-111.072 0 0-20z" p-id="642" fill="#006CBC"></path><path d="M336.096 316.096l111.072 0 0 20-111.072 0 0-20z" p-id="643" fill="#006CBC"></path><path d="M187.968 373.152l20 0 0 111.104-20 0 0-111.104z" p-id="644" fill="#006CBC"></path><path d="M279.072 373.152l20 0 0 111.104-20 0 0-111.104z" p-id="645" fill="#006CBC"></path><path d="M187.968 373.152l111.104 0 0 20-111.104 0 0-20z" p-id="646" fill="#006CBC"></path><path d="M187.968 464.256l111.104 0 0 20-111.104 0 0-20z" p-id="647" fill="#006CBC"></path><path d="M336.096 373.152l20 0 0 111.104-20 0 0-111.104z" p-id="648" fill="#006CBC"></path><path d="M427.2 373.152l20 0 0 111.104-20 0 0-111.104z" p-id="649" fill="#006CBC"></path><path d="M336.096 373.152l111.072 0 0 20-111.072 0 0-20z" p-id="650" fill="#006CBC"></path><path d="M336.096 464.256l111.072 0 0 20-111.072 0 0-20z" p-id="651" fill="#006CBC"></path><path d="M187.968 521.248l20 0 0 111.104-20 0 0-111.104z" p-id="652" fill="#006CBC"></path><path d="M279.072 521.248l20 0 0 111.104-20 0 0-111.104z" p-id="653" fill="#006CBC"></path><path d="M187.968 521.248l111.104 0 0 20-111.104 0 0-20z" p-id="654" fill="#006CBC"></path><path d="M187.968 612.352l111.104 0 0 20-111.104 0 0-20z" p-id="655" fill="#006CBC"></path><path d="M336.096 521.248l20 0 0 111.104-20 0 0-111.104z" p-id="656" fill="#006CBC"></path><path d="M427.2 521.248l20 0 0 111.104-20 0 0-111.104z" p-id="657" fill="#006CBC"></path><path d="M336.096 521.248l111.072 0 0 20-111.072 0 0-20z" p-id="658" fill="#006CBC"></path><path d="M336.096 612.352l111.072 0 0 20-111.072 0 0-20z" p-id="659" fill="#006CBC"></path><path d="M187.968 669.408l20 0 0 111.072-20 0 0-111.072z" p-id="660" fill="#006CBC"></path><path d="M279.072 669.408l20 0 0 111.072-20 0 0-111.072z" p-id="661" fill="#006CBC"></path><path d="M187.968 669.408l111.104 0 0 20-111.104 0 0-20z" p-id="662" fill="#006CBC"></path><path d="M187.968 760.448l111.104 0 0 20-111.104 0 0-20z" p-id="663" fill="#006CBC"></path><path d="M336.096 669.408l20 0 0 111.072-20 0 0-111.072z" p-id="664" fill="#006CBC"></path><path d="M427.2 669.408l20 0 0 111.072-20 0 0-111.072z" p-id="665" fill="#006CBC"></path><path d="M336.096 669.408l111.072 0 0 20-111.072 0 0-20z" p-id="666" fill="#006CBC"></path><path d="M336.096 760.448l111.072 0 0 20-111.072 0 0-20z" p-id="667" fill="#006CBC"></path><path d="M595.296 373.152l20 0 0 111.104-20 0 0-111.104z" p-id="668" fill="#006CBC"></path><path d="M686.432 373.152l20 0 0 111.104-20 0 0-111.104z" p-id="669" fill="#006CBC"></path><path d="M595.296 373.152l111.072 0 0 20-111.072 0 0-20z" p-id="670" fill="#006CBC"></path><path d="M595.296 464.256l111.072 0 0 20-111.072 0 0-20z" p-id="671" fill="#006CBC"></path><path d="M763.424 484.256l-19.968 0 0-111.104 20 6.688-0.032 104.416z" p-id="672" fill="#006CBC"></path><path d="M854.592 484.256l-20.032 0 0-80.736 20 6.688 0 74.048z" p-id="673" fill="#006CBC"></path><path d="M834.56 403.52l0 19.488-71.136-23.68 0-19.52 71.136 23.712z" p-id="674" fill="#006CBC"></path><path d="M743.456 464.256l111.072 0 0 20-111.072 0 0-20z" p-id="675" fill="#006CBC"></path><path d="M595.296 521.312l20 0 0 111.072-20 0 0-111.072z" p-id="676" fill="#006CBC"></path><path d="M686.432 521.312l20 0 0 111.072-20 0 0-111.072z" p-id="677" fill="#006CBC"></path><path d="M595.296 521.312l111.072 0 0 20-111.072 0 0-20z" p-id="678" fill="#006CBC"></path><path d="M595.296 612.384l111.072 0 0 20-111.072 0 0-20z" p-id="679" fill="#006CBC"></path><path d="M743.456 521.312l20 0 0 111.072-20 0 0-111.072z" p-id="680" fill="#006CBC"></path><path d="M834.56 521.312l20 0 0 111.072-20 0 0-111.072z" p-id="681" fill="#006CBC"></path><path d="M743.456 521.312l111.072 0 0 20-111.072 0 0-20z" p-id="682" fill="#006CBC"></path><path d="M743.456 612.384l111.072 0 0 20-111.072 0 0-20z" p-id="683" fill="#006CBC"></path><path d="M595.296 669.408l20 0 0 111.072-20 0 0-111.072z" p-id="684" fill="#006CBC"></path><path d="M686.432 669.408l20 0 0 111.072-20 0 0-111.072z" p-id="685" fill="#006CBC"></path><path d="M595.296 669.408l111.072 0 0 20-111.072 0 0-20z" p-id="686" fill="#006CBC"></path><path d="M595.296 760.448l111.072 0 0 20-111.072 0 0-20z" p-id="687" fill="#006CBC"></path><path d="M743.456 669.408l20 0 0 111.072-20 0 0-111.072z" p-id="688" fill="#006CBC"></path><path d="M834.56 669.408l20 0 0 111.072-20 0 0-111.072z" p-id="689" fill="#006CBC"></path><path d="M743.456 669.408l111.072 0 0 20-111.072 0 0-20z" p-id="690" fill="#006CBC"></path><path d="M743.456 760.448l111.072 0 0 20-111.072 0 0-20z" p-id="691" fill="#006CBC"></path></svg>