<?xml version="1.0" standalone="no"?><!DOCTYPE svg PUBLIC "-//W3C//DTD SVG 1.1//EN" "http://www.w3.org/Graphics/SVG/1.1/DTD/svg11.dtd"><svg t="1522760162845" class="icon" style="" viewBox="0 0 1024 1024" version="1.1" xmlns="http://www.w3.org/2000/svg" p-id="1450" xmlns:xlink="http://www.w3.org/1999/xlink" width="200" height="200"><defs><style type="text/css"></style></defs><path d="M832 992H192a96.109 96.109 0 0 1-96-96V224a96.109 96.109 0 0 1 96-96h96.004a32 32 0 0 1 0 64H192a32.036 32.036 0 0 0-32 32v672a32.036 32.036 0 0 0 32 32h640a32.036 32.036 0 0 0 32-32V224a32.036 32.036 0 0 0-32-32h-96a32 32 0 0 1 0-64h96a96.109 96.109 0 0 1 96 96v672a96.109 96.109 0 0 1-96 96z" p-id="1451" fill="#006CBC"></path><path d="M768.001 448H256a32 32 0 0 1 0-64h512.001a32 32 0 1 1 0 64zM768.001 640H256a32 32 0 0 1 0-64h512.001a32 32 0 1 1 0 64zM576 832H256a32 32 0 0 1 0-64h320a32 32 0 0 1 0 64zM672 288H352.004a96.109 96.109 0 0 1-96-96v-64a96.109 96.109 0 0 1 96-96H672a96.109 96.109 0 0 1 96 96v64a96.109 96.109 0 0 1-96 96zM352.004 96a32.036 32.036 0 0 0-32 32v64a32.036 32.036 0 0 0 32 32H672a32.036 32.036 0 0 0 32-32v-64a32.036 32.036 0 0 0-32-32z" p-id="1452" fill="#006CBC"></path></svg>